:FULLY-SPECIFIED
:FORCE-ALL-JOINTS-BE-3DOF
:DEGREES
747
root 4.1683 18.0277 13.4501 -149.569 -15.7017 204.782
lfemur -23.7556 -9.22256 -6.65141
ltibia 26.6809 0 0
lfoot -8.54448 -6.99168 0
ltoes 12.8291 0 0
rfemur -25.4064 -29.2868 -0.525419
rtibia 113.776 0 0
rfoot 22.6653 4.2898 0
rtoes 19.8357 0 0
lowerback 1.09117 7.36884 0.919134
upperback -2.21648 9.83364 -1.25093
thorax -2.5209 4.87558 -2.08163
lowerneck -7.51158 -7.67784 -0.999724
upperneck -1.86977 -10.2807 3.30034
head 0.893131 -5.1407 0.859032
lclavicle -5.01635e-14 -3.61647e-14 0
lhumerus -57.4929 -13.8665 59.0536
lradius 50.9673 0 0
lwrist 20.9456 0 0
lhand -22.9839 -3.88575 0
lfingers 7.12502 0 0
lthumb 3.45857 26.0652 0
rclavicle -5.01635e-14 -3.61647e-14 0
rhumerus 30.2021 19.6204 -55.2231
rradius 90.6824 0 0
rwrist -5.8005 0 0
rhand -29.2079 -29.2433 0
rfingers 7.12502 0 0
rthumb -2.55248 -779.201 0
748
root 4.10038 17.983 13.5865 -145.956 -13.2184 208.38
lfemur -24.1028 -8.61993 -6.85339
ltibia 27.3152 0 0
lfoot -8.90251 -6.25413 0
ltoes 12.9181 0 0
rfemur -25.1439 -29.1141 0.0625836
rtibia 112.128 0 0
rfoot 21.5795 3.30797 0
rtoes 18.6337 0 0
lowerback 1.09262 7.29713 0.870477
upperback -2.18138 9.7373 -1.31934
thorax -2.48662 4.82882 -2.12049
lowerneck -7.45339 -7.6504 -0.991212
upperneck -1.88636 -10.2398 3.3493
head 0.879607 -5.11834 0.87658
lclavicle -4.86652e-14 -3.51993e-14 0
lhumerus -57.4472 -13.8071 60.0083
lradius 51.4923 0 0
lwrist 20.7315 0 0
lhand -22.9385 -3.91768 0
lfingers 7.12502 0 0
lthumb 3.50244 26.0324 0
rclavicle -4.86652e-14 -3.51993e-14 0
rhumerus 28.5773 20.3814 -56.7522
rradius 90.4003 0 0
rwrist -5.48752 0 0
rhand -29.0664 -28.9992 0
rfingers 7.12502 0 0
rthumb -2.41581 -778.957 0
749
root 4.02681 17.9346 13.7344 -142.043 -10.5283 212.279
lfemur -24.479 -7.9671 -7.07219
ltibia 28.0023 0 0
lfoot -9.29035 -5.45516 0
ltoes 13.0145 0 0
rfemur -24.8595 -28.927 0.699557
rtibia 110.342 0 0
rfoot 20.4033 2.24438 0
rtoes 17.3316 0 0
lowerback 1.09419 7.21945 0.817769
upperback -2.14335 9.63293 -1.39345
thorax -2.44948 4.77817 -2.16257
lowerneck -7.39034 -7.62068 -0.981991
upperneck -1.90434 -10.1954 3.40234
head 0.864956 -5.09412 0.895589
lclavicle -4.70421e-14 -3.41536e-14 0
lhumerus -57.3977 -13.7427 61.0425
lradius 52.061 0 0
lwrist 20.4994 0 0
lhand -22.8893 -3.95228 0
lfingers 7.12502 0 0
lthumb 3.54996 25.9969 0
rclavicle -4.70421e-14 -3.41536e-14 0
rhumerus 26.8172 21.2057 -58.4087
rradius 90.0948 0 0
rwrist -5.14848 0 0
rhand -28.9131 -28.7349 0
rfingers 7.12502 0 0
rthumb -2.26776 -778.693 0
750
root 3.94807 17.8827 13.8925 -137.854 -7.64941 216.45
lfemur -24.8815 -7.26846 -7.30635
ltibia 28.7376 0 0
lfoot -9.70542 -4.6001 0
ltoes 13.1177 0 0
rfemur -24.5551 -28.7268 1.38124
rtibia 108.432 0 0
rfoot 19.1445 1.10613 0
rtoes 15.9381 0 0
lowerback 1.09587 7.13631 0.76136
upperback -2.10266 9.52124 -1.47277
thorax -2.40974 4.72397 -2.20762
lowerneck -7.32287 -7.58888 -0.972124
upperneck -1.92358 -10.148 3.4591
head 0.849278 -5.0682 0.915932
lclavicle -4.53052e-14 -3.30343e-14 0
lhumerus -57.3447 -13.6738 62.1494
lradius 52.6696 0 0
lwrist 20.2511 0 0
lhand -22.8366 -3.9893 0
lfingers 7.12502 0 0
lthumb 3.60082 25.9589 0
rclavicle -4.53052e-14 -3.30343e-14 0
rhumerus 24.9335 22.0879 -60.1814
rradius 89.7678 0 0
rwrist -4.78564 0 0
rhand -28.749 -28.452 0
rfingers 7.12502 0 0
rthumb -2.10932 -778.41 0
751
root 3.86466 17.8278 14.0601 -133.417 -4.59966 220.87
lfemur -25.3079 -6.52835 -7.55441
ltibia 29.5166 0 0
lfoot -10.1451 -3.6943 0
ltoes 13.2269 0 0
rfemur -24.2326 -28.5148 2.10338
rtibia 106.408 0 0
rfoot 17.8111 -0.0996635 0
rtoes 14.4619 0 0
lowerback 1.09765 7.04824 0.701604
upperback -2.05955 9.40292 -1.55679
thorax -2.36764 4.66655 -2.25533
lowerneck -7.2514 -7.55518 -0.96167
upperneck -1.94397 -10.0977 3.51923
head 0.832668 -5.04074 0.937483
lclavicle -4.34651e-14 -3.18487e-14 0
lhumerus -57.2886 -13.6008 63.3219
lradius 53.3144 0 0
lwrist 19.9881 0 0
lhand -22.7808 -4.02852 0
lfingers 7.12502 0 0
lthumb 3.6547 25.9186 0
rclavicle -4.34651e-14 -3.18487e-14 0
rhumerus 22.9381 23.0225 -62.0594
rradius 89.4214 0 0
rwrist -4.40127 0 0
rhand -28.5752 -28.1523 0
rfingers 7.12502 0 0
rthumb -1.94147 -778.111 0
752
root 3.77707 17.7701 14.2361 -128.758 -1.39704 225.511
lfemur -25.7557 -5.75115 -7.8149
ltibia 30.3345 0 0
lfoot -10.6069 -2.74309 0
ltoes 13.3417 0 0
rfemur -23.894 -28.2921 2.86172
rtibia 104.282 0 0
rfoot 16.4108 -1.3659 0
rtoes 12.9117 0 0
lowerback 1.09952 6.95576 0.638852
upperback -2.01428 9.27867 -1.64502
thorax -2.32343 4.60624 -2.30544
lowerneck -7.17635 -7.5198 -0.950693
upperneck -1.96537 -10.0449 3.58237
head 0.815227 -5.0119 0.960114
lclavicle -4.15328e-14 -3.06037e-14 0
lhumerus -57.2297 -13.5242 64.5532
lradius 53.9914 0 0
lwrist 19.7119 0 0
lhand -22.7223 -4.0697 0
lfingers 7.12502 0 0
lthumb 3.71128 25.8763 0
rclavicle -4.15328e-14 -3.06037e-14 0
rhumerus 20.8426 24.0039 -64.0315
rradius 89.0576 0 0
rwrist -3.99764 0 0
rhand -28.3928 -27.8375 0
rfingers 7.12502 0 0
rthumb -1.76522 -777.796 0
753
root 3.68578 17.71 14.4195 -123.903 1.94045 230.347
lfemur -26.2224 -4.94121 -8.08636
ltibia 31.187 0 0
lfoot -11.0881 -1.75183 0
ltoes 13.4613 0 0
rfemur -23.5412 -28.06 3.65199
rtibia 102.067 0 0
rfoot 14.9515 -2.68546 0
rtoes 11.2963 0 0
lowerback 1.10147 6.85938 0.573458
upperback -1.96711 9.14918 -1.73697
thorax -2.27735 4.54341 -2.35766
lowerneck -7.09813 -7.48292 -0.939254
upperneck -1.98767 -9.9899 3.64817
head 0.797051 -4.98185 0.983698
lclavicle -3.95191e-14 -2.93062e-14 0
lhumerus -57.1683 -13.4443 65.8363
lradius 54.697 0 0
lwrist 19.424 0 0
lhand -22.6612 -4.11262 0
lfingers 7.12502 0 0
lthumb 3.77024 25.8322 0
rclavicle -3.95191e-14 -2.93062e-14 0
rhumerus 18.6589 25.0267 -66.0866
rradius 88.6785 0 0
rwrist -3.577 0 0
rhand -28.2026 -27.5096 0
rfingers 7.12502 0 0
rthumb -1.58153 -777.469 0
